<?xml version="1.0" encoding="iso-8859-1"?>
<svg version="1.1" xmlns="http://www.w3.org/2000/svg" xmlns:xlink="http://www.w3.org/1999/xlink" x="0px" y="0px"
  width="950px" height="950px" viewBox="0 0 950 950" style="enable-background:new 0 0 950 950;" xml:space="preserve">
<path d="M300.671,630.936v84.662h-58.51c-12.415,0-18.365,15.246-9.232,23.656L452.12,941.07c12.93,11.906,32.828,11.906,45.759,0
  l219.19-201.816c9.135-8.408,3.185-23.656-9.231-23.656h-58.509v-84.662H300.671z"/>
<path d="M292.463,134.036V2.661c-3.189,1.452-6.128,3.466-8.653,5.992L134.666,157.797c-2.526,2.525-4.54,5.464-5.992,8.653
  h131.375C277.951,166.45,292.463,151.938,292.463,134.036z"/>
<path d="M155.557,605.348h145.114h348.658h145.114c16.317,0,29.545-13.229,29.545-29.545V29.545
  C823.988,13.228,810.761,0,794.443,0H318.051v134.036c0,31.983-26.021,58.003-58.003,58.003H126.012v383.764
  C126.012,592.119,139.24,605.348,155.557,605.348z M307.329,276.253h335.344c7.065,0,12.794,5.728,12.794,12.794
  s-5.729,12.794-12.794,12.794H307.329c-7.066,0-12.794-5.728-12.794-12.794S300.263,276.253,307.329,276.253z M300.671,419.024
  c1.94-1.187,4.215-1.884,6.657-1.884h335.344c2.442,0,4.716,0.696,6.657,1.883c3.676,2.248,6.137,6.287,6.137,10.911
  s-2.461,8.663-6.137,10.911c-1.941,1.187-4.216,1.883-6.657,1.883H307.329c-2.442,0-4.717-0.697-6.657-1.884
  c-3.676-2.248-6.137-6.286-6.137-10.911S296.996,421.271,300.671,419.024z"/>
</svg>
