<?xml version="1.0" encoding="iso-8859-1"?>
<!-- Generator: Adobe Illustrator 19.0.0, SVG Export Plug-In . SVG Version: 6.00 Build 0)  -->
<svg version="1.1" id="Layer_1" xmlns="http://www.w3.org/2000/svg" xmlns:xlink="http://www.w3.org/1999/xlink" x="0px" y="0px"
	 viewBox="0 0 512 512" style="enable-background:new 0 0 512 512;" xml:space="preserve">
<g>
	<g>
		<g>
			<path d="M208.797,302.285H94.431c-15.471,0-29.043-21.631-29.043-46.291c0-24.66,13.571-46.292,29.043-46.292h114.366
				c18.027,0,32.694-14.666,32.694-32.693c0-18.027-14.667-32.693-32.694-32.693H94.431C42.362,144.316,0,194.415,0,255.995
				c0,61.579,42.362,111.678,94.431,111.678h114.366c18.027,0,32.694-14.668,32.694-32.695S226.824,302.285,208.797,302.285z
				 M208.797,347.673H94.431C53.39,347.673,20,306.547,20,255.995s33.39-91.679,74.431-91.679v0.002h114.366
				c7,0,12.694,5.694,12.694,12.693c0,6.999-5.694,12.693-12.694,12.693H94.431c-27.042,0-49.043,29.738-49.043,66.292
				c0,36.553,22.001,66.291,49.043,66.291h114.366c7,0,12.694,5.694,12.694,12.693C221.491,341.979,215.797,347.673,208.797,347.673
				z"/>
			<path d="M417.566,144.318L303.2,144.329c-18.026,0.001-32.691,14.669-32.691,32.696c0.001,18.027,14.669,32.691,32.697,32.69
				l114.362-0.011c15.472,0,29.044,21.632,29.044,46.292s-13.572,46.291-29.046,46.291l-114.365,0.011
				c-18.026,0-32.692,14.667-32.692,32.696c0.001,8.732,3.402,16.942,9.578,23.117c6.176,6.174,14.387,9.574,23.119,9.573
				l114.362-0.009c52.07,0,94.432-50.099,94.432-111.678C512,194.417,469.637,144.318,417.566,144.318z M417.567,347.672
				l-114.363,0.011c-7,0.001-12.694-5.693-12.695-12.691c0-7,5.693-12.695,12.693-12.695l114.365-0.011
				c27.044,0,49.045-29.738,49.045-66.291c0-36.554-22.001-66.292-49.045-66.292l-114.362,0.01c-3.391,0-6.579-1.321-8.977-3.718
				c-2.398-2.397-3.719-5.584-3.719-8.974c0-7,5.694-12.694,12.693-12.695l114.365-0.011c41.042,0,74.433,41.127,74.433,91.679
				C492,306.545,458.61,347.672,417.567,347.672z"/>
			<path d="M411.293,255.995c0-18.027-14.666-32.694-32.693-32.694H133.401c-18.027,0-32.694,14.667-32.694,32.694
				s14.667,32.693,32.694,32.693c5.523,0,10-4.478,10-10c0-5.522-4.477-10-10-10c-7,0-12.694-5.694-12.694-12.693
				c0-7,5.694-12.694,12.694-12.694H378.6c6.999,0,12.693,5.694,12.693,12.694c0,6.999-5.694,12.693-12.693,12.693H243
				c-5.523,0-10,4.478-10,10c0,5.522,4.477,10,10,10h135.6C396.627,288.688,411.293,274.022,411.293,255.995z"/>
			<path d="M204,288.688c5.522,0,10-4.478,10-10c0-5.522-4.477-10-10-10h-31c-5.523,0-10,4.478-10,10c0,5.522,4.477,10,10,10H204z"
				/>
		</g>
	</g>
</g>
<g>
</g>
<g>
</g>
<g>
</g>
<g>
</g>
<g>
</g>
<g>
</g>
<g>
</g>
<g>
</g>
<g>
</g>
<g>
</g>
<g>
</g>
<g>
</g>
<g>
</g>
<g>
</g>
<g>
</g>
</svg>
