<?xml version="1.0" encoding="iso-8859-1"?>
<!-- Generator: Adobe Illustrator 19.0.0, SVG Export Plug-In . SVG Version: 6.00 Build 0)  -->
<svg version="1.1" id="Layer_1" xmlns="http://www.w3.org/2000/svg" xmlns:xlink="http://www.w3.org/1999/xlink" x="0px" y="0px"
	 viewBox="0 0 511.999 511.999" style="enable-background:new 0 0 511.999 511.999;" xml:space="preserve">
<g>
	<g>
		<path d="M438.044,182.044h-91.022c-34.905,0-64.218,24.313-71.945,56.889h-38.153c-7.728-32.576-37.042-56.889-71.945-56.889
			H73.956C33.176,182.044,0,215.22,0,255.999s33.176,73.956,73.956,73.956h91.022c34.905,0,64.218-24.313,71.945-56.889h38.153
			c7.728,32.576,37.042,56.889,71.945,56.889h91.022c40.779,0,73.956-33.176,73.956-73.956S478.824,182.044,438.044,182.044z
			 M200.95,273.066c-6.403,13.442-20.118,22.756-35.972,22.756H73.956c-21.958,0-39.822-17.864-39.822-39.822
			s17.864-39.822,39.822-39.822h91.022c15.854,0,29.569,9.315,35.972,22.756h-24.594v34.133H200.95z M438.044,295.822h-91.022
			c-15.854,0-29.569-9.314-35.972-22.756h24.594v-34.133H311.05c6.403-13.441,20.119-22.756,35.972-22.756h91.022
			c21.958,0,39.822,17.864,39.822,39.822S460.002,295.822,438.044,295.822z"/>
	</g>
</g>
<g>
</g>
<g>
</g>
<g>
</g>
<g>
</g>
<g>
</g>
<g>
</g>
<g>
</g>
<g>
</g>
<g>
</g>
<g>
</g>
<g>
</g>
<g>
</g>
<g>
</g>
<g>
</g>
<g>
</g>
</svg>
